# AST/ASF file generated using VICON BodyLanguage
# -----------------------------------------------
:version 1.10
:name VICON
:units
  mass 1.0
  length 0.45
  angle deg
:documentation
   .ast/.asf automatically generated from VICON data using
   VICON BodyBuilder and BodyLanguage model FoxedUp or BRILLIANT.MOD
:root
   order TX TY TZ RX RY RZ
   axis XYZ
   position 0 0 0  
   orientation 0 0 0 
:bonedata
  begin
     id 1 
     name lhipjoint
     direction 0.662698 -0.695252 0.27831 
     length 2.53073 
     axis 0 0 0  XYZ
  end
  begin
     id 2 
     name lfemur
     direction 0.34202 -0.939693 0  
     length 7.16147  
     axis 0 0 20  XYZ
    dof rx ry rz
    limits (-160.0 20.0)
           (-70.0 70.0)
           (-60.0 70.0)
  end
  begin
     id 3 
     name ltibia
     direction 0.34202 -0.939693 0   
     length 7.63967   
     axis 0 0 20   XYZ
    dof rx
    limits (-10.0 170.0)
  end
  begin
     id 4 
     name lfoot
     direction 0.0938457 -0.257721 0.961651   
     length 1.89793   
     axis -90 7.62852e-016 20   XYZ
    dof rx rz
    limits (-45.0 90.0)
           (-70.0 20.0)
  end
  begin
     id 5 
     name ltoes
     direction -0.00116841 -0.0030592 0.999995   
     length 0.955649   
     axis -90 7.62852e-016 20   XYZ
    dof rx
    limits (-90.0 20.0)
  end
  begin
     id 6 
     name rhipjoint
     direction -0.649445 -0.705948 0.282592   
     length 2.49238  
     axis 0 0 0  XYZ 
  end
  begin
     id 7 
     name rfemur
     direction -0.34202 -0.939693 0   
     length 6.90728   
     axis 0 0 -20   XYZ
    dof rx ry rz
    limits (-160.0 20.0)
           (-70.0 70.0)
           (-70.0 60.0)
  end
  begin
     id 8 
     name rtibia
     direction -0.34202 -0.939693 0   
     length 7.72868   
     axis 0 0 -20   XYZ
    dof rx
    limits (-10.0 170.0)
 end
 begin
     id 9 
     name rfoot
     direction -0.0920068 -0.252865 0.963117   
     length 1.97476  
     axis -90 -7.62852e-016 -20   XYZ
    dof rx rz
    limits (-45.0 90.0)
           (-20.0 70.0)
  end
  begin
     id 10 
     name rtoes
     direction 0.000391322 0.00230649 0.999997   
     length 0.992641   
     axis -90 -7.62852e-016 -20   XYZ
    dof rx
    limits (-90.0 20.0)
  end
  begin
     id 11 
     name lowerback
     direction -0.00875327 0.998321 -0.0572635   
     length 2.20024   
     axis 0 0 0   XYZ
    dof rx ry rz
    limits (-20.0 45.0)
           (-30.0 30.0)
           (-30.0 30.0)
  end
  begin
     id 12 
     name upperback
     direction 0.00753931 0.999972 -0.000360425   
     length 2.20538   
     axis 0 0 0   XYZ
    dof rx ry rz
    limits (-20.0 45.0)
           (-30.0 30.0)
           (-30.0 30.0)
  end
  begin
     id 13 
     name thorax
     direction 0.0117767 0.999601 0.0256663   
     length 2.21508   
     axis 0 0 0   XYZ
    dof rx ry rz
    limits (-20.0 45.0)
           (-30.0 30.0)
           (-30.0 30.0)
  end
  begin
     id 14 
     name lowerneck
     direction 0.060228 0.994909 0.0807986   
     length 1.7607   
     axis 0 0 0   XYZ
    dof rx ry rz
    limits (-20.0 45.0)
           (-30.0 30.0)
           (-30.0 30.0)
  end
  begin
     id 15 
     name upperneck
     direction -0.0563647 0.959594 -0.275685   
     length 1.75612   
     axis 0 0 0   XYZ
    dof rx ry rz
    limits (-20.0 45.0)
           (-30.0 30.0)
           (-30.0 30.0)
  end
  begin
     id 16
     name head
     direction -0.0161544 0.99458 -0.102714  
     length 1.79288  
     axis 0 0 0   XYZ
    dof rx ry rz
    limits (-20.0 45.0)
           (-30.0 30.0)
           (-30.0 30.0)
  end
  begin
     id 17 
     name lclavicle
     direction 0.93913 0.332189 -0.087669  
     length 3.52087  
     axis 0 0 0   XYZ
    dof ry rz
    limits (-20.0 10.0)
           (0.0 20.0)
  end
  begin
     id 18 
     name lhumerus
     direction 1 -4.48974e-011 -2.70836e-027   
     length 5.35289   
     axis -180 -30 -90   XYZ
    dof rx ry rz
    limits (-60.0 90.0)
           (-90.0 90.0)
           (-90.0 90.0)
  end
  begin
     id 19
     name lradius
     direction 1 -4.48961e-011 -9.76021e-027   
     length 3.27727   
     axis -180 -30 -90   XYZ
    dof rx
    limits (-10.0 170.0)
  end
  begin
     id 20
     name lwrist
     direction 1 -4.49103e-011 -2.23668e-026   
     length 1.63864   
     axis 1.44924e-014 90 90   XYZ
    dof ry
    limits (-180.0 0.0)
 end
  begin
     id 21 
     name lhand
     direction 1 3.0697e-005 0.000161777   
     length 0.54443   
     axis 2.85318e-014 90 90   XYZ
    dof rx rz
    limits (-90.0 90.0)
           (-45.0 45.0)
  end
  begin
     id 22 
     name lfingers
     direction 1 -4.49027e-011 -8.9447e-026   
     length 0.438912   
     axis 5.70628e-014 90 90   XYZ
    dof rx
    limits (0.0 90.0)
  end
  begin
     id 23
     name lthumb
     direction 0.707058 2.6516e-005 0.707156   
     length 0.630274   
     axis -90 45 -3.53137e-014   XYZ
    dof rx rz
    limits (-45.0 45.0)
           (-45.0 45.0)
  end
  begin
     id 24 
     name rclavicle
     direction -0.95274 0.284984 -0.105215   
     length 3.43401  
     axis 0 0 0   XYZ 
    dof ry rz
    limits (-10.0 20.0)
           (-20.0 0.0)
  end
  begin
     id 25 
     name rhumerus
     direction -0.999999 -0.000575019 -0.00106829  
     length 5.52077   
     axis -180 30 90   XYZ
    dof rx ry rz
    limits (-90.0 60.0)
           (-90.0 90.0)
           (-90.0 90.0)
  end
  begin
     id 26 
     name rradius
     direction -1 -4.4879e-011 -6.35415e-027   
     length 3.32364   
     axis -180 30 90   XYZ
    dof rx
    limits (-10.0 170.0)
  end
  begin
     id 27 
     name rwrist
     direction -1 -4.49048e-011 -9.98542e-027   
     length 1.66182   
     axis 6.32482e-015 -90 -90   XYZ
    dof ry
    limits (-180.0 0.0)
  end
  begin
     id 28
     name rhand
     direction -1 -4.48978e-011 -1.99771e-026   
     length 0.732235   
     axis 1.27479e-014 -90 -90   XYZ
    dof rx rz
    limits (-90.0 90.0)
           (-45.0 45.0)
  end
  begin
     id 29
     name rfingers
     direction -1 -4.49144e-011 -3.99245e-026   
     length 0.590347   
     axis 2.5496e-014 -90 -90   XYZ
    dof rx
    limits (0.0 90.0)
  end
  begin
     id 30
     name rthumb
     direction -0.707107 -6.35121e-011 0.707107   
     length 0.847624   
     axis -90 -45 -2.82974e-014   XYZ
    dof rx rz
    limits (-45.0 45.0)
           (-45.0 45.0)
  end
:hierarchy
  begin
    root lhipjoint rhipjoint lowerback
    lhipjoint lfemur
    lfemur ltibia
    ltibia lfoot
    lfoot ltoes
    rhipjoint rfemur
    rfemur rtibia
    rtibia rfoot
    rfoot rtoes
    lowerback upperback
    upperback thorax
    thorax lowerneck lclavicle rclavicle
    lowerneck upperneck
    upperneck head
    lclavicle lhumerus
    lhumerus lradius
    lradius lwrist
    lwrist lhand lthumb
    lhand lfingers
    rclavicle rhumerus
    rhumerus rradius
    rradius rwrist
    rwrist rhand rthumb
    rhand rfingers
  end

#!OML:ASF G:\Work\Work\Patient Classification 1\Elijah\terrain1\Elijah.ASF
:FULLY-SPECIFIED
:DEGREES
150
root 16.0469 22.9522 0.542432 -0.0598409 5.03053 4.38335
lowerback 6.28554 0.54355 -8.64092
upperback 2.18304 0.149748 -3.30383
thorax -1.27053 0.0694934 1.40758
lowerneck -20.0851 8.26191 8.57348
upperneck 22.122 12.2808 -12.2434
head 11.9494 4.80886 -3.89848
rclavicle -1.42131e-014 4.6118e-014
rhumerus -40.7536 -6.3212 -78.4576
rradius 21.9647
rwrist 8.22372
rhand -13.9565 24.0005
rfingers 7.12502
rthumb 12.171 -5.62544
lclavicle -1.42131e-014 4.6118e-014
lhumerus -23.41 -10.5972 80.9546
lradius 62.1664
lwrist 11.1816
lhand -13.0874 36.692
lfingers 7.12502
lthumb 13.009 66.2664
rfemur -38.8152 -14.0041 22.2165
rtibia 34.2623
rfoot 8.51648 -9.61622
rtoes -24.0748
lfemur -12.5738 0.640428 -25.5182
ltibia 56.8358
lfoot -14.7234 -19.5877
ltoes -4.07403
151
root 16.0353 22.8826 0.681005 -0.222566 5.37297 4.40081
lowerback 6.30096 0.57293 -8.73416
upperback 1.79794 0.152404 -3.21443
thorax -1.68135 0.0940023 1.55
lowerneck -18.0336 8.32529 9.18456
upperneck 21.4678 12.3269 -12.5347
head 11.3704 4.9534 -4.13946
rclavicle -1.19271e-015 3.97569e-015
rhumerus -42.2489 -6.5952 -77.6534
rradius 21.8763
rwrist 8.66995
rhand -14.075 24.0516
rfingers 7.12502
rthumb 12.0568 -5.5811
lclavicle -1.19271e-015 3.97569e-015
lhumerus -25.2494 -10.9764 81.1153
lradius 63.29
lwrist 11.3182
lhand -13.4248 34.933
lfingers 7.12502
lthumb 12.6837 64.5278
rfemur -37.6744 -13.0941 21.4014
rtibia 32.7293
rfoot 8.79735 -10.4895
rtoes -23.7991
lfemur -12.2927 0.578214 -25.3676
ltibia 57.6647
lfoot -14.8405 -19.9727
ltoes -2.70724
152
root 16.0247 22.8102 0.813073 -0.247807 5.67973 4.33722
lowerback 6.55342 0.515801 -8.54849
upperback 1.31079 0.0206369 -3.21971
thorax -2.3197 0.061388 1.44915
lowerneck -17.6274 8.3079 8.84847
upperneck 21.7441 12.3426 -12.0734
head 11.3351 4.9959 -3.92608
rclavicle -2.38542e-015 -6.36111e-015
rhumerus -43.4526 -7.02153 -76.8901
rradius 21.4503
rwrist 9.42101
rhand -13.9556 23.8345
rfingers 7.12502
rthumb 12.1719 -5.79142
lclavicle -2.38542e-015 -6.36111e-015
lhumerus -27.078 -11.2226 80.9353
lradius 64.4208
lwrist 11.4466
lhand -13.4702 35.0995
lfingers 7.12502
lthumb 12.6399 64.697
rfemur -36.7017 -12.0205 20.6959
rtibia 31.2564
rfoot 9.13572 -11.5087
rtoes -23.1788
lfemur -12.171 0.482814 -25.1364
ltibia 58.5462
lfoot -14.7619 -20.3945
ltoes -0.649743
153
root 16.0116 22.7317 0.941813 -0.211842 5.91634 4.14099
lowerback 5.94754 0.553337 -8.29575
upperback 1.47909 0.173226 -3.07804
thorax -1.81841 0.115358 1.44811
lowerneck -17.7067 8.39642 9.29699
upperneck 21.9462 12.4618 -12.425
head 11.5021 5.03919 -4.11133
rclavicle 2.51463e-014 -3.26007e-014
rhumerus -43.4611 -7.97119 -75.8483
rradius 20.7008
rwrist 10.2549
rhand -14.0438 23.8764
rfingers 7.12502
rthumb 12.0869 -5.75446
lclavicle 2.51463e-014 -3.26007e-014
lhumerus -27.8589 -11.4337 80.9235
lradius 65.6061
lwrist 11.6038
lhand -13.7096 34.7738
lfingers 7.12502
lthumb 12.4091 64.3855
rfemur -35.8739 -10.8267 20.193
rtibia 29.9254
rfoot 9.64286 -12.4597
rtoes -23.6375
lfemur -12.1067 0.52615 -24.7215
ltibia 59.437
lfoot -14.6615 -20.8812
ltoes 1.45493
154
root 15.996 22.6525 1.08081 -0.270116 6.13975 3.81194
lowerback 5.61778 0.602611 -7.95157
upperback 1.44481 0.296364 -2.91111
thorax -1.67997 0.171726 1.42352
lowerneck -17.7781 8.3801 9.13486
upperneck 22.2118 12.4641 -12.2285
head 11.589 5.04017 -4.01384
rclavicle 2.0276e-014 -1.98785e-014
rhumerus -44.0799 -8.61589 -74.9254
rradius 20.3548
rwrist 11.0225
rhand -14.2565 24.0517
rfingers 7.12502
rthumb 11.8818 -5.59114
lclavicle 2.0276e-014 -1.98785e-014
lhumerus -28.9809 -11.6615 80.9851
lradius 66.784
lwrist 11.7142
lhand -14.0243 33.9682
lfingers 7.12502
lthumb 12.1057 63.598
rfemur -34.9507 -9.69733 19.8936
rtibia 28.7455
rfoot 10.0711 -13.2399
rtoes -24.5808
lfemur -11.9672 0.674924 -24.1341
ltibia 60.3219
lfoot -14.6122 -21.3368
ltoes 3.14648
155
root 15.9842 22.5731 1.23159 -0.312726 6.39639 3.80429
lowerback 5.21642 0.665314 -7.84155
upperback 1.43933 0.429892 -2.85426
thorax -1.47198 0.231482 1.41541
lowerneck -17.3126 8.34027 9.13246
upperneck 21.9966 12.41 -12.2106
head 11.4074 5.04415 -4.02522
rclavicle -4.87022e-015 1.03368e-014
rhumerus -44.8265 -9.08855 -74.1184
rradius 20.2517
rwrist 11.489
rhand -14.0902 23.6148
rfingers 7.12502
rthumb 12.0422 -6.01877
lclavicle -4.87022e-015 1.03368e-014
lhumerus -29.9898 -11.9754 81.021
lradius 67.7839
lwrist 11.8532
lhand -13.8396 34.0696
lfingers 7.12502
lthumb 12.2837 63.6888
rfemur -34.0201 -8.93097 19.324
rtibia 27.6577
rfoot 10.1669 -13.9074
rtoes -24.0068
lfemur -11.7026 0.733195 -23.945
ltibia 61.1887
lfoot -14.347 -21.7332
ltoes 5.62326
156
root 15.9758 22.4955 1.38221 -0.291229 6.78737 3.91477
lowerback 4.9043 0.662943 -7.71143
upperback 1.41534 0.464899 -2.88726
thorax -1.32404 0.244822 1.30967
lowerneck -17.4303 8.2482 9.05905
upperneck 22.1024 12.3025 -12.1955
head 11.4502 4.98462 -4.02548
rclavicle 5.66536e-015 -2.94201e-014
rhumerus -45.4111 -9.70721 -73.285
rradius 19.8349
rwrist 11.9832
rhand -14.0434 23.5319
rfingers 7.12502
rthumb 12.0872 -6.09897
lclavicle 5.66536e-015 -2.94201e-014
lhumerus -30.9882 -12.254 80.9329
lradius 68.6448
lwrist 11.9256
lhand -14.2859 31.2867
lfingers 7.12502
lthumb 11.8534 60.9312
rfemur -33.1777 -8.44648 18.6575
rtibia 26.6865
rfoot 10.2009 -14.3701
rtoes -23.2836
lfemur -11.5132 0.679466 -23.899
ltibia 62.0985
lfoot -14.092 -22.0248
ltoes 7.01252
157
root 15.9591 22.4138 1.52031 -0.259675 7.14713 3.6929
lowerback 4.7975 0.629482 -7.32392
upperback 1.33735 0.4457 -2.85222
thorax -1.34181 0.236898 1.13292
lowerneck -17.7727 8.28115 8.96236
upperneck 22.3285 12.3182 -11.9591
head 11.5789 4.9909 -3.91297
rclavicle 2.01766e-014 0
rhumerus -45.8473 -10.3955 -72.4802
rradius 19.1686
rwrist 12.6618
rhand -14.3267 23.985
rfingers 7.12502
rthumb 11.814 -5.66174
lclavicle 2.01766e-014 0
lhumerus -31.869 -12.3436 80.7624
lradius 69.3568
lwrist 11.6433
lhand -13.9803 29.9587
lfingers 7.12502
lthumb 12.1481 59.586
rfemur -32.4655 -7.54776 18.3383
rtibia 25.8424
rfoot 10.3748 -15.1525
rtoes -23.5321
lfemur -11.5893 0.717124 -23.4016
ltibia 63.1284
lfoot -14.0793 -22.3032
ltoes 5.36652
158
root 15.9398 22.3252 1.66179 -0.236603 7.50305 3.69111
lowerback 4.57767 0.613601 -7.22459
upperback 1.43597 0.458816 -2.81634
thorax -1.11715 0.235069 1.1167
lowerneck -17.4742 8.39215 8.77381
upperneck 21.7832 12.3992 -11.6689
head 11.288 5.07131 -3.75794
rclavicle 1.04362e-015 -1.19271e-014
rhumerus -46.116 -10.9457 -71.7656
rradius 18.8059
rwrist 13.0502
rhand -14.2531 23.758
rfingers 7.12502
rthumb 11.885 -5.88463
lclavicle 1.04362e-015 -1.19271e-014
lhumerus -32.5898 -12.3202 80.6979
lradius 70.2848
lwrist 11.2019
lhand -14.0386 33.6438
lfingers 7.12502
lthumb 12.0919 63.2744
rfemur -31.707 -6.59716 17.7784
rtibia 25.0024
rfoot 10.2252 -16.4113
rtoes -22.0896
lfemur -11.5691 0.720614 -23.1332
ltibia 64.171
lfoot -14.3032 -22.5702
ltoes 3.98963
159
root 15.9242 22.2406 1.81521 -0.269921 7.92514 3.78862
lowerback 4.31277 0.614711 -7.37616
upperback 1.29242 0.472204 -2.71318
thorax -1.12028 0.244666 1.30787
lowerneck -17.3132 7.98957 9.21182
upperneck 22.2023 11.9024 -12.1606
head 11.4206 4.82653 -4.11417
rclavicle 2.44008e-014 -2.8625e-014
rhumerus -47.1476 -11.1169 -70.9288
rradius 18.8198
rwrist 13.2866
rhand -13.9569 23.3673
rfingers 7.12502
rthumb 12.1706 -6.25868
lclavicle 2.44008e-014 -2.8625e-014
lhumerus -34.0324 -12.0543 80.7518
lradius 71.1686
lwrist 11.3466
lhand -13.6429 31.8356
lfingers 7.12502
lthumb 12.4735 61.4434
rfemur -30.7738 -5.97198 17.1629
rtibia 24.1428
rfoot 10.2891 -17.1103
rtoes -21.1398
lfemur -11.3528 0.685153 -22.9859
ltibia 65.1658
lfoot -14.6894 -22.8413
ltoes 3.91201
160
root 15.9071 22.1586 1.96654 -0.324267 8.21198 3.59401
lowerback 4.16416 0.61927 -7.18412
upperback 1.15793 0.49445 -2.54111
thorax -1.17831 0.259745 1.37828
lowerneck -17.4253 8.20009 9.39483
upperneck 22.4239 12.1841 -12.1817
head 11.5769 4.95756 -4.10339
rclavicle 1.63003e-014 2.46493e-014
rhumerus -47.959 -11.4912 -69.9692
rradius 18.699
rwrist 13.7598
rhand -13.5948 23.2396
rfingers 7.12502
rthumb 12.5198 -6.36534
lclavicle 1.63003e-014 2.46493e-014
lhumerus -35.2256 -11.6393 80.7598
lradius 71.8738
lwrist 11.2819
lhand -13.4517 30.2961
lfingers 7.12502
lthumb 12.6578 59.8926
rfemur -29.8948 -5.22715 16.9339
rtibia 23.417
rfoot 10.8562 -17.0507
rtoes -22.875
lfemur -11.2079 0.778211 -22.4723
ltibia 66.1315
lfoot -13.8769 -23.3441
ltoes 7.11695
